<?xml version="1.0" encoding="UTF-8"?> <svg xmlns="http://www.w3.org/2000/svg" viewBox="0 0 3306 846" width="320" height="82"><style>tspan { white-space:pre }.shp0 { fill: #ffffff } </style><g><g><path fill-rule="evenodd" class="shp0" d="M1101.58 628.25C1098.87 639.08 1096.17 649.9 1093.46 663.44C1090.75 676.98 1085.34 690.51 1077.22 704.05C1069.1 717.58 1060.98 731.12 1050.15 744.65C1039.32 758.19 1025.79 769.02 1009.55 779.85C993.31 790.68 971.65 798.8 950 804.21C925.64 809.63 898.57 815.04 868.8 815.04C849.85 815.04 833.61 815.04 817.37 812.33C803.83 809.63 790.3 806.92 779.47 804.21C768.65 801.5 757.82 798.8 749.7 793.38L768.65 706.75C776.77 709.46 784.89 712.17 793.01 714.88C801.13 717.58 811.95 717.58 822.78 720.29C833.61 723 847.14 723 860.68 723C901.28 723 931.05 714.88 952.71 698.63C971.65 682.39 985.19 658.03 987.89 628.25L990.6 593.05C985.19 598.47 979.77 606.59 971.65 612C963.53 620.13 955.41 625.54 944.59 630.95C933.76 636.37 922.93 641.78 909.4 644.49C895.86 647.2 882.33 649.9 863.38 649.9C844.44 649.9 828.2 647.2 814.66 641.78C798.42 636.37 784.89 625.54 774.06 614.71C763.23 601.18 752.41 584.93 746.99 565.98C741.58 547.03 736.17 522.67 736.17 495.6C736.17 460.4 741.58 427.92 752.41 395.43C763.23 362.95 779.47 335.88 798.42 311.51C820.08 287.15 844.44 268.2 876.92 254.66C909.4 241.13 944.59 233.01 985.19 233.01C1006.84 233.01 1028.5 235.71 1047.44 238.42C1069.1 241.13 1085.34 246.54 1101.58 249.25C1120.53 254.66 1136.77 260.08 1155.71 265.49L1101.58 628.25ZM1028.5 333.17C1023.08 330.46 1017.67 330.46 1009.55 327.75C1004.14 327.75 998.72 325.05 990.6 325.05C985.19 325.05 977.07 322.34 971.65 322.34C952.71 322.34 933.76 327.75 920.23 335.88C906.69 344 893.16 357.53 885.04 371.07C876.92 384.6 868.8 400.85 863.38 419.8C857.97 438.75 857.97 454.99 857.97 473.94C857.97 490.18 860.68 501.01 863.38 511.84C866.09 522.67 871.5 530.79 874.21 536.2C879.62 541.62 885.04 547.03 890.45 549.74C895.86 552.45 903.98 552.45 912.1 552.45C922.93 552.45 933.76 549.74 944.59 544.33C955.41 538.91 963.53 533.5 971.65 525.38C979.77 517.25 985.19 511.84 990.6 503.72C996.01 495.6 998.72 490.18 1001.43 487.48L1028.5 333.17Z"></path><path fill-rule="evenodd" class="shp0" d="M1561.73 649.9L1464.29 649.9L1461.58 593.05C1458.87 595.76 1453.46 601.18 1448.04 609.3C1442.63 617.42 1434.51 622.83 1423.68 630.95C1412.86 639.08 1399.32 644.49 1385.79 649.9C1372.26 655.32 1353.31 658.03 1334.36 658.03C1296.47 658.03 1263.98 644.49 1239.62 617.42C1215.26 590.35 1204.44 549.74 1204.44 495.6C1204.44 460.4 1209.85 427.92 1220.68 395.43C1231.5 362.95 1247.74 335.88 1266.69 311.51C1288.35 287.15 1312.71 268.2 1345.19 254.66C1377.67 241.13 1412.86 233.01 1453.46 233.01C1475.11 233.01 1496.77 235.71 1515.71 238.42C1537.37 241.13 1553.61 246.54 1569.85 249.25C1588.8 254.66 1605.04 260.08 1623.98 265.49L1561.73 649.9ZM1491.35 333.17C1485.94 330.46 1480.53 330.46 1472.41 327.75C1466.99 327.75 1461.58 325.05 1453.46 325.05C1448.04 325.05 1439.92 322.34 1434.51 322.34C1415.56 322.34 1399.32 327.75 1383.08 335.88C1369.55 344 1356.01 357.53 1347.89 371.07C1339.77 384.6 1331.65 400.85 1326.24 419.8C1320.83 438.75 1318.12 457.7 1318.12 476.65C1318.12 492.89 1320.83 506.43 1323.53 517.25C1326.24 528.08 1331.65 536.2 1334.36 541.62C1339.77 547.03 1345.19 552.45 1353.31 555.15C1358.72 557.86 1366.84 557.86 1374.96 557.86C1385.79 557.86 1396.62 555.15 1407.44 549.74C1418.27 544.33 1426.39 536.2 1434.51 528.08C1442.63 519.96 1448.04 511.84 1453.46 503.72C1458.87 495.6 1461.58 490.18 1464.29 487.48L1491.35 333.17ZM1816.17 238.42L1821.58 295.27C1826.99 289.85 1835.11 281.73 1843.23 273.61C1851.35 265.49 1862.18 260.08 1875.71 251.96C1889.25 246.54 1902.78 238.42 1919.02 235.71C1935.26 230.3 1951.5 230.3 1970.45 230.3L1948.8 335.88C1948.8 335.88 1946.09 335.88 1943.38 335.88C1940.68 335.88 1940.68 335.88 1937.97 335.88C1935.26 335.88 1932.56 335.88 1927.14 335.88C1910.9 335.88 1894.66 338.58 1881.13 344C1867.59 349.41 1856.77 357.53 1845.94 362.95C1835.11 371.07 1824.29 381.9 1816.17 392.73L1775.56 647.2L1653.76 647.2L1718.72 238.42L1816.17 238.42ZM2335.86 649.9L2238.42 649.9L2235.71 593.05C2233.01 595.76 2227.59 601.18 2222.18 609.3C2216.77 617.42 2208.65 622.83 2197.82 630.95C2186.99 639.08 2173.46 644.49 2159.92 649.9C2146.39 655.32 2127.44 658.03 2108.5 658.03C2070.6 658.03 2038.12 644.49 2013.76 617.42C1989.4 590.35 1978.57 549.74 1978.57 495.6C1978.57 460.4 1983.98 427.92 1994.81 395.43C2005.64 362.95 2021.88 335.88 2040.83 311.51C2062.48 287.15 2086.84 268.2 2119.32 254.66C2151.8 241.13 2186.99 233.01 2227.59 233.01C2249.25 233.01 2270.9 235.71 2289.85 238.42C2311.5 241.13 2327.74 246.54 2343.98 249.25C2362.93 254.66 2379.17 260.08 2398.12 265.49L2335.86 649.9ZM2265.49 333.17C2260.08 330.46 2254.66 330.46 2246.54 327.75C2241.13 327.75 2235.71 325.05 2227.59 325.05C2222.18 325.05 2214.06 322.34 2208.65 322.34C2189.7 322.34 2173.46 327.75 2157.22 335.88C2143.68 344 2130.15 357.53 2122.03 371.07C2113.91 384.6 2105.79 400.85 2100.38 419.8C2094.96 438.75 2092.26 457.7 2092.26 476.65C2092.26 492.89 2094.96 506.43 2097.67 517.25C2100.38 528.08 2105.79 536.2 2108.5 541.62C2113.91 547.03 2119.32 552.45 2127.44 555.15C2132.86 557.86 2140.98 557.86 2149.1 557.86C2159.92 557.86 2170.75 555.15 2181.58 549.74C2192.41 544.33 2200.53 536.2 2208.65 528.08C2216.77 519.96 2222.18 511.84 2227.59 503.72C2233.01 495.6 2235.71 490.18 2238.42 487.48L2265.49 333.17ZM2804.14 628.25C2801.43 639.08 2798.72 649.9 2796.01 663.44C2793.31 676.98 2787.89 690.51 2779.77 704.05C2771.65 717.58 2763.53 731.12 2752.71 744.65C2741.88 758.19 2728.35 769.02 2709.4 779.85C2693.16 790.68 2671.5 798.8 2649.85 804.21C2625.49 809.63 2598.42 815.04 2568.65 815.04C2549.7 815.04 2533.46 815.04 2517.22 812.33C2503.68 809.63 2490.15 806.92 2479.32 804.21C2468.5 801.5 2457.67 798.8 2449.55 793.38L2468.5 706.75C2476.62 709.46 2484.74 712.17 2492.86 714.88C2500.98 717.58 2511.8 717.58 2522.63 720.29C2533.46 723 2546.99 723 2560.53 723C2601.13 723 2630.9 714.88 2652.56 698.63C2671.5 682.39 2685.04 658.03 2687.74 628.25L2690.45 593.05C2685.04 598.47 2679.62 606.59 2671.5 612C2663.38 620.13 2655.26 625.54 2644.44 630.95C2633.61 636.37 2622.78 641.78 2609.25 644.49C2595.71 647.2 2582.18 649.9 2563.23 649.9C2544.29 649.9 2528.05 647.2 2514.51 641.78C2498.27 636.37 2484.74 625.54 2473.91 614.71C2463.08 601.18 2452.26 584.93 2446.84 565.98C2441.43 547.03 2436.01 522.67 2436.01 495.6C2436.01 460.4 2441.43 427.92 2452.26 395.43C2463.08 362.95 2479.32 335.88 2498.27 311.51C2519.92 287.15 2544.29 268.2 2576.77 254.66C2609.25 241.13 2644.44 233.01 2685.04 233.01C2706.69 233.01 2728.35 235.71 2747.29 238.42C2768.95 241.13 2785.19 246.54 2801.43 249.25C2820.38 254.66 2836.62 260.08 2855.56 265.49L2804.14 628.25ZM2728.35 333.17C2722.93 330.46 2717.52 330.46 2709.4 327.75C2703.98 327.75 2698.57 325.05 2690.45 325.05C2685.04 325.05 2676.92 322.34 2671.5 322.34C2652.56 322.34 2633.61 327.75 2620.08 335.88C2606.54 344 2593.01 357.53 2584.89 371.07C2576.77 384.6 2568.65 400.85 2563.23 419.8C2557.82 438.75 2557.82 454.99 2557.82 473.94C2557.82 490.18 2560.53 501.01 2563.23 511.84C2565.94 522.67 2571.35 530.79 2574.06 536.2C2579.47 541.62 2584.89 547.03 2590.3 549.74C2595.71 552.45 2603.83 552.45 2611.95 552.45C2622.78 552.45 2633.61 549.74 2644.44 544.33C2655.26 538.91 2663.38 533.5 2671.5 525.38C2679.62 517.25 2685.04 511.84 2690.45 503.72C2695.86 495.6 2698.57 490.18 2701.28 487.48L2728.35 333.17ZM3139.77 230.3C3188.5 230.3 3223.68 241.13 3245.34 262.78C3269.7 284.44 3280.53 311.51 3280.53 344C3280.53 362.95 3275.11 381.9 3266.99 398.14C3258.87 414.38 3245.34 430.63 3226.39 441.45C3207.44 454.99 3183.08 463.11 3156.01 471.23C3126.24 479.35 3093.76 482.06 3053.16 482.06C3047.74 482.06 3042.33 482.06 3036.92 482.06C3031.5 482.06 3026.09 482.06 3020.68 482.06C3020.68 484.77 3020.68 484.77 3020.68 487.48C3020.68 490.18 3020.68 490.18 3020.68 492.89C3020.68 517.25 3026.09 536.2 3039.62 547.03C3053.16 557.86 3074.81 563.28 3101.88 563.28C3118.12 563.28 3131.65 563.28 3145.19 560.57C3158.72 557.86 3172.26 555.15 3180.38 552.45C3193.91 547.03 3204.74 544.33 3212.86 538.91L3226.39 625.54C3215.56 630.95 3202.03 636.37 3185.79 641.78C3172.26 647.2 3158.72 649.9 3139.77 652.61C3120.83 655.32 3101.88 658.03 3080.23 658.03C3015.26 658.03 2969.25 641.78 2939.47 612C2909.7 582.23 2896.17 538.91 2896.17 487.48C2896.17 452.28 2901.58 419.8 2912.41 390.02C2923.23 360.24 2939.47 333.17 2961.13 308.8C2982.78 284.44 3007.14 268.2 3036.92 254.66C3069.4 238.42 3101.88 230.3 3139.77 230.3ZM3028.8 408.97C3072.11 408.97 3104.59 403.55 3128.95 395.43C3153.31 387.31 3166.84 371.07 3166.84 352.12C3166.84 341.29 3164.14 333.17 3156.01 325.05C3147.89 316.93 3137.07 314.22 3120.83 314.22C3099.17 314.22 3080.23 322.34 3061.28 338.58C3045.04 357.53 3034.21 379.19 3028.8 408.97Z"></path></g><g><path fill-rule="evenodd" class="shp0" d="M243.53 606.59L32.41 606.59L284.14 319.63L45.94 46.21L257.07 46.21L432.4 243.24L417.74 260.08L239.09 463.11L304.29 537.43L243.53 606.59Z"></path><path class="shp0" d="M733.46 176.16L519.62 176.16L446.54 260.08L267.89 463.11L519.62 750.07L730.75 750.07L481.73 463.11L733.46 176.16Z"></path></g></g></svg> 